<?xml version="1.0" encoding="iso-8859-1"?>
<!-- Generator: Adobe Illustrator 16.0.0, SVG Export Plug-In . SVG Version: 6.00 Build 0)  -->
<!DOCTYPE svg PUBLIC "-//W3C//DTD SVG 1.1//EN" "http://www.w3.org/Graphics/SVG/1.1/DTD/svg11.dtd">
<svg version="1.1" id="Capa_1" xmlns="http://www.w3.org/2000/svg" xmlns:xlink="http://www.w3.org/1999/xlink" x="0px" y="0px"
	 width="612px" height="612px" viewBox="0 0 612 612" style="enable-background:new 0 0 612 612;" xml:space="preserve">
<g>
	<path fill="#fc3441" d="M522.077,106.763l-13.596-42.613L94.992,195.907h141.416L522.077,106.763z M12.614,265.755l40.853-12.732v-34.46
		c0-3.458,0.812-6.841,2.412-10.021c0.032-0.064,0.053-0.107,0.075-0.171L0,226.194L12.614,265.755z M550.476,195.907
		l-20.864-65.473l-209.865,65.473H550.476z M47.491,375.187l5.966-1.857v-94.298l-33.308,10.384L47.491,375.187z M78.312,220.762
		v327.089H612V220.762H78.312z M257.666,394.524c-0.032,12.475-10.17,22.613-22.603,22.613H135.61
		c-12.454,0-22.604-10.139-22.635-22.592V304.42c0-12.465,10.149-22.603,22.603-22.625h99.485
		c12.443,0.021,22.571,10.16,22.603,22.604V394.524L257.666,394.524z M137.819,392.304h95.014V306.64h-95.014V392.304z"/>
</g>
<g>
</g>
<g>
</g>
<g>
</g>
<g>
</g>
<g>
</g>
<g>
</g>
<g>
</g>
<g>
</g>
<g>
</g>
<g>
</g>
<g>
</g>
<g>
</g>
<g>
</g>
<g>
</g>
<g>
</g>
</svg>
