<svg width="40" height="40" viewBox="0 0 40 40" fill="none" xmlns="http://www.w3.org/2000/svg">
<path d="M35.9589 9.90967C35.9248 9.94023 35.9065 9.98451 35.9088 10.0302C35.9293 10.4401 35.9293 10.8502 35.9293 11.2638C35.9293 24.6078 27.6757 39.9972 12.5834 40C12.5812 40 12.5793 39.9982 12.5793 39.996V39.996C12.5793 39.9938 12.5775 39.992 12.5753 39.992C8.293 39.9988 4.09626 38.5484 0.445699 35.8075C0.322833 35.7152 0.405036 35.5189 0.55783 35.535C1.02176 35.584 1.48711 35.6089 1.95328 35.6103C5.5389 35.6142 9.02507 34.1776 11.8848 31.5254C11.9824 31.4348 11.9197 31.2708 11.7869 31.2606C8.49408 31.0077 5.63627 28.3497 4.5444 24.5064C4.51348 24.3975 4.61153 24.2961 4.72252 24.3182C5.70882 24.5144 6.71487 24.4862 7.69096 24.2367C7.83625 24.1995 7.83233 23.9955 7.68985 23.9488C4.12046 22.7774 1.60065 18.79 1.60065 14.1916V14.1916C1.60065 14.1374 1.66156 14.1052 1.70681 14.1351C2.69019 14.7859 3.77112 15.1809 4.88236 15.2964C5.02513 15.3113 5.09572 15.1335 4.98973 15.0367C1.71224 12.0436 0.712726 6.51551 2.6743 2.08519C2.72167 1.97821 2.86833 1.96787 2.93372 2.06489C7.05613 8.18133 13.0578 11.9185 19.5062 12.3809C19.6037 12.3879 19.6809 12.3004 19.6643 12.204C19.0701 8.75394 19.9791 5.16578 22.0727 2.74435C25.3567 -1.05476 30.5095 -0.885779 33.6232 3.10418C33.6598 3.15107 33.7208 3.17334 33.7786 3.15891C35.4526 2.74003 37.0621 2.0022 38.5515 0.974258C38.6676 0.894123 38.8216 1.00087 38.781 1.13597C38.1958 3.08306 37.1389 4.76129 35.7561 5.94368C35.6375 6.04511 35.7246 6.24625 35.8779 6.21699C37.1373 5.97665 38.3699 5.55562 39.5497 4.9624C39.6833 4.89523 39.8267 5.04061 39.7523 5.17029C38.7057 6.99427 37.4238 8.59399 35.9589 9.90967Z" fill="black"/>
</svg>
