<svg width="32" height="32" viewBox="0 0 32 32" fill="none" xmlns="http://www.w3.org/2000/svg">
<path d="M28.7779 7.91805C28.7439 7.94865 28.7255 7.99293 28.7277 8.03861C28.7435 8.36171 28.7435 8.68499 28.7435 9.01105C28.7435 19.6862 22.1405 31.9978 10.0667 32C10.0649 32 10.0635 31.9986 10.0635 31.9968V31.9968C10.0635 31.995 10.062 31.9936 10.0603 31.9936C6.66961 31.999 3.34603 30.8625 0.446741 28.7133C0.323312 28.6218 0.405215 28.4247 0.558169 28.4392C0.892222 28.471 1.22716 28.4872 1.56262 28.4882C4.40908 28.4913 7.17719 27.3597 9.45499 25.269C9.5531 25.179 9.49054 25.0145 9.3579 25.0025C6.76755 24.7687 4.52474 22.674 3.64926 19.653C3.61777 19.5443 3.71586 19.443 3.82704 19.4641C4.56678 19.6041 5.31965 19.5867 6.05297 19.4138C6.19893 19.3794 6.19615 19.1754 6.05454 19.1261C3.25067 18.1491 1.28052 14.9901 1.28052 11.3533V11.3533C1.28052 11.3099 1.32925 11.2842 1.36545 11.3081C2.1261 11.8115 2.9597 12.1236 3.81764 12.2272C3.96015 12.2444 4.03136 12.0672 3.92661 11.9691C1.36852 9.57234 0.590454 5.22334 2.11799 1.71699C2.16472 1.60973 2.31125 1.59929 2.37687 1.69615C5.66566 6.55095 10.4379 9.5211 15.5665 9.90194C15.664 9.90918 15.7412 9.82166 15.725 9.72525C15.2628 6.97684 15.991 4.12374 17.6582 2.19548C20.2811 -0.838876 24.3943 -0.709054 26.8864 2.46783C26.9231 2.51464 26.9842 2.5369 27.0418 2.52236C28.3483 2.19299 29.6053 1.62073 30.7717 0.827021C30.8883 0.747653 31.042 0.854647 31.0002 0.989382C30.5405 2.4703 29.7383 3.75206 28.6952 4.67634C28.5784 4.77985 28.6668 4.98144 28.8198 4.95049C29.7542 4.76144 30.6695 4.44786 31.5488 4.0152C31.6829 3.94919 31.8262 4.09502 31.751 4.22425C30.9258 5.64247 29.9217 6.8886 28.7779 7.91805Z" fill="black"/>
</svg>
